<svg width="108" height="36" viewBox="0 0 108 36" fill="none" xmlns="http://www.w3.org/2000/svg">
<path d="M10.74 20C10.74 21.86 9.63 23.06 7.65 23.06C6.66 23.06 5.52 22.67 5.52 21.53C5.52 19.76 7.95 19.49 10.11 19.49H10.74V20ZM4.2 15.77C5.1 14.93 6.48 14.24 7.89 14.24C9.42 14.24 10.59 14.93 10.59 16.4V16.64C6.24 16.64 0.99 17.36 0.99 21.68C0.99 25.19 4.05 26.36 6.42 26.36C8.19 26.36 9.9 25.64 10.65 24.41H10.74V26H15.24V18.47C15.24 13.04 13.38 10.58 8.37 10.58C5.94 10.58 3.45 11.45 1.71 13.1L4.2 15.77ZM34.7522 26V3.32H29.8322V12.65H29.7722C28.9322 11.66 27.4022 10.64 25.2122 10.64C20.8622 10.64 18.1622 14.3 18.1622 18.47C18.1622 22.64 20.7722 26.42 25.2722 26.42C27.2522 26.42 29.2022 25.55 30.1622 24.05H30.2222V26H34.7522ZM30.0422 18.5C30.0422 20.45 28.6622 22.34 26.4422 22.34C24.1022 22.34 22.9022 20.42 22.9022 18.47C22.9022 16.55 24.1022 14.66 26.4422 14.66C28.6622 14.66 30.0422 16.61 30.0422 18.5ZM71.0583 10.76C70.8183 10.67 70.3983 10.64 70.0083 10.64C68.1783 10.64 66.7083 11.72 65.9583 13.22H65.8983V11.06H61.1583V26H66.0783V18.32C66.0783 17.09 66.9483 14.93 69.5883 14.93C69.9783 14.93 70.3983 14.96 70.8483 15.08L71.0583 10.76ZM78.3928 6.29C78.3928 4.79 77.1328 3.59 75.5728 3.59C73.9828 3.59 72.7528 4.85 72.7528 6.29C72.7528 7.76 73.9828 8.99 75.5728 8.99C77.1328 8.99 78.3928 7.82 78.3928 6.29ZM78.0328 26V11.06H73.1128V26H78.0328ZM91.5298 3.05C90.8698 2.84 89.9998 2.75 89.1598 2.75C84.1798 2.75 82.7398 5.96 82.7398 9.62V11.06H80.0098V14.75H82.7398V26H87.6598V14.75H90.9898V11.06H87.6598V9.56C87.6598 8.18 88.0498 6.74 89.8498 6.74C90.3298 6.74 90.8398 6.83 91.1998 6.95L91.5298 3.05ZM107.978 11.06H102.758L99.7875 20.66H99.6975L96.3675 11.06H90.9075L97.1475 25.76L96.6675 26.99C96.1875 28.28 95.6775 29 94.1475 29C93.6675 29 93.0375 28.88 92.5575 28.73L92.0175 32.87C92.7375 33.05 93.7875 33.2 94.7175 33.2C98.4675 33.2 100.088 31.37 101.288 28.25L107.978 11.06Z" fill="white"/>
<path d="M39 23V17C39 14.6131 39.9482 12.3239 41.636 10.636C43.3239 8.94821 45.6131 8 48 8C50.3869 8 52.6761 8.94821 54.364 10.636C56.0518 12.3239 57 14.6131 57 17V23" stroke="white" stroke-width="2" stroke-linecap="round" stroke-linejoin="round"/>
<path d="M57 24C57 24.5304 56.7893 25.0391 56.4142 25.4142C56.0391 25.7893 55.5304 26 55 26H54C53.4696 26 52.9609 25.7893 52.5858 25.4142C52.2107 25.0391 52 24.5304 52 24V21C52 20.4696 52.2107 19.9609 52.5858 19.5858C52.9609 19.2107 53.4696 19 54 19H57V24ZM39 24C39 24.5304 39.2107 25.0391 39.5858 25.4142C39.9609 25.7893 40.4696 26 41 26H42C42.5304 26 43.0391 25.7893 43.4142 25.4142C43.7893 25.0391 44 24.5304 44 24V21C44 20.4696 43.7893 19.9609 43.4142 19.5858C43.0391 19.2107 42.5304 19 42 19H39V24Z" stroke="white" stroke-width="2" stroke-linecap="round" stroke-linejoin="round"/>
</svg>
